#tb 0: 32767/982027
#media_type 0: video
#codec_id 0: rawvideo
#dimensions 0: 112x112
#sar 0: 0/1
0,          0,          0,        1,    18816, 0xc3fe9fc7
0,          1,          1,        1,    18816, 0xab429744
0,          2,          2,        1,    18816, 0x1eec8b7d
0,          3,          3,        1,    18816, 0x3817859f
0,          4,          4,        1,    18816, 0x8f487c41
0,          5,          5,        1,    18816, 0xe1097136
0,          6,          6,        1,    18816, 0x494161dd
0,          7,          7,        1,    18816, 0x40c85514
0,          8,          8,        1,    18816, 0xd1854b86
0,          9,          9,        1,    18816, 0xdd563ad4
0,         10,         10,        1,    18816, 0x00122fac
0,         11,         11,        1,    18816, 0x0a6f19f4
0,         12,         12,        1,    18816, 0x74fe0e01
0,         13,         13,        1,    18816, 0x576e00bf
0,         14,         14,        1,    18816, 0xcb84f7e1
0,         15,         15,        1,    18816, 0x7f85ebf3
0,         16,         16,        1,    18816, 0xc6c2e22b
0,         17,         17,        1,    18816, 0x9b22cd80
0,         18,         18,        1,    18816, 0x512fc164
0,         19,         19,        1,    18816, 0x5c2aaf7b
0,         20,         20,        1,    18816, 0x98a5a700
0,         21,         21,        1,    18816, 0xccf19d74
0,         22,         22,        1,    18816, 0x15d08d90
0,         23,         23,        1,    18816, 0xe04f7b1b
0,         24,         24,        1,    18816, 0x251564f6
0,         25,         25,        1,    18816, 0x81bf5498
0,         26,         26,        1,    18816, 0xd94f4861
0,         27,         27,        1,    18816, 0xcb623dd3
0,         28,         28,        1,    18816, 0x359f29ac
0,         29,         29,        1,    18816, 0x932a1e14
0,         30,         30,        1,    18816, 0x99e109e1
0,         31,         31,        1,    18816, 0xafcf0391
0,         32,         32,        1,    18816, 0x278cfdd3
0,         33,         33,        1,    18816, 0x64a2f73e
0,         34,         34,        1,    18816, 0x1777e80e
0,         35,         35,        1,    18816, 0x8effdb17
0,         36,         36,        1,    18816, 0x564bcdc9
0,         37,         37,        1,    18816, 0xe83ac8c5
0,         38,         38,        1,    18816, 0xaa53c337
0,         39,         39,        1,    18816, 0xcb7bb62d
0,         40,         40,        1,    18816, 0x435ba9e5
0,         41,         41,        1,    18816, 0x5d759c00
0,         42,         42,        1,    18816, 0x3411941b
0,         43,         43,        1,    18816, 0x643d8eb3
0,         44,         44,        1,    18816, 0x9c9a8a3f
0,         45,         45,        1,    18816, 0xe44a7baa
0,         46,         46,        1,    18816, 0xec457166
0,         47,         47,        1,    18816, 0x9d84619e
0,         48,         48,        1,    18816, 0x799b5f1f
0,         49,         49,        1,    18816, 0x9b2a5b68
0,         50,         50,        1,    18816, 0xa235544f
0,         51,         51,        1,    18816, 0x725747c2
0,         52,         52,        1,    18816, 0xe3573fb5
0,         53,         53,        1,    18816, 0x31cb36ae
0,         54,         54,        1,    18816, 0x6bc4350f
0,         55,         55,        1,    18816, 0x2da53498
0,         56,         56,        1,    18816, 0x29f127a4
0,         57,         57,        1,    18816, 0x2dfc1eb0
0,         58,         58,        1,    18816, 0xc9ea175d
0,         59,         59,        1,    18816, 0xd73613a0
0,         60,         60,        1,    18816, 0x24870eee
0,         61,         61,        1,    18816, 0x5bf20853
0,         62,         62,        1,    18816, 0x7778f73c
0,         63,         63,        1,    18816, 0x7072f297
0,         64,         64,        1,    18816, 0xd974ee82
0,         65,         65,        1,    18816, 0xb090eec9
0,         66,         66,        1,    18816, 0x6844f019
0,         67,         67,        1,    18816, 0x935be67d
0,         68,         68,        1,    18816, 0x2da5da98
0,         69,         69,        1,    18816, 0x1cf2d8af
0,         70,         70,        1,    18816, 0x64e3d7eb
0,         71,         71,        1,    18816, 0x7450d12a
0,         72,         72,        1,    18816, 0xe8cbcb7f
0,         73,         73,        1,    18816, 0x8ebbc0df
0,         74,         74,        1,    18816, 0x0bc5bc33
0,         75,         75,        1,    18816, 0x3b09b8e3
0,         76,         76,        1,    18816, 0xc5c2b619
0,         77,         77,        1,    18816, 0xbd42af2a
0,         78,         78,        1,    18816, 0x58daad01
0,         79,         79,        1,    18816, 0x7ef3a780
0,         80,         80,        1,    18816, 0x235b9df6
0,         81,         81,        1,    18816, 0x6e918fa7
0,         82,         82,        1,    18816, 0x06268f84
0,         83,         83,        1,    18816, 0x279390ed
0,         84,         84,        1,    18816, 0xfac0870f
0,         85,         85,        1,    18816, 0x548a7e7a
0,         86,         86,        1,    18816, 0xe8d17493
0,         87,         87,        1,    18816, 0x5c4471d0
0,         88,         88,        1,    18816, 0x94c17d3a
0,         89,         89,        1,    18816, 0xa8867fc8
0,         90,         90,        1,    18816, 0x096374c3
0,         91,         91,        1,    18816, 0x7f9e6c9e
0,         92,         92,        1,    18816, 0x70ab5c16
0,         93,         93,        1,    18816, 0xb8a45ba1
0,         94,         94,        1,    18816, 0xd19d6014
0,         95,         95,        1,    18816, 0x5f425aa4
0,         96,         96,        1,    18816, 0x394c4f3d
0,         97,         97,        1,    18816, 0x07e74fc6
0,         98,         98,        1,    18816, 0x8dec527b
0,         99,         99,        1,    18816, 0xcf2e4b76
0,        100,        100,        1,    18816, 0x74d744c1
0,        101,        101,        1,    18816, 0xf22e39dd
0,        102,        102,        1,    18816, 0x1ba334a1
0,        103,        103,        1,    18816, 0x326d2a2b
0,        104,        104,        1,    18816, 0x3edc26a0
0,        105,        105,        1,    18816, 0x81a127e2
0,        106,        106,        1,    18816, 0xc9f92698
0,        107,        107,        1,    18816, 0x4ca320d5
0,        108,        108,        1,    18816, 0xdea41b02
0,        109,        109,        1,    18816, 0xff4810e5
0,        110,        110,        1,    18816, 0x18b2118c
0,        111,        111,        1,    18816, 0xb6cd15ed
0,        112,        112,        1,    18816, 0xfa9b0d36
0,        113,        113,        1,    18816, 0x0d19000b
0,        114,        114,        1,    18816, 0x3bbdfdc4
0,        115,        115,        1,    18816, 0x72bdfcae
0,        116,        116,        1,    18816, 0x854ef9f7
0,        117,        117,        1,    18816, 0x9195f5dc
0,        118,        118,        1,    18816, 0x2452e545
0,        119,        119,        1,    18816, 0x6b76e03d
